# xmcd
#
# Track frame offsets:
#	150
#	16589
#	28006
#	42200
#	53997
#	70479
#	96424
#	111219
#	125596
#	146285
#	162446
#	175706
#	210017
#	224416
#	252232
#
# Disc length: 3578 seconds
#
# Revision: 1
# Processed by: cddbd v1.5.2PL0 Copyright (c) Steve Scherf et al.
# Submitted via: audiograbber 1.83.01
#
DISCID=cf0df80f
DTITLE=Nando e Netto - 2007
DYEAR=2007
DGENRE=Sertanejo
TTITLE0=Procuro você
TTITLE1=Meu jeito de ser
TTITLE2=Nova York
TTITLE3=Coração bandido
TTITLE4=Mentira
TTITLE5=Capa de revista - Noite de tortura - Amor a três - Espinhos da vida
TTITLE6=Segue sua vida
TTITLE7=Rock bacana
TTITLE8=Eu não caio do cavalo - Caminheiro - Mercedita
TTITLE9=Beijo apaixonado
TTITLE10=100 % você
TTITLE11=Hoje vou voltar de madrugada - Amargurado - Telefone mudo - Boate Azul
TTITLE12=Sábado de festa
TTITLE13=Tadim Tadim - Whisk a go go - Ela arrepia meu corpo
TTITLE14=Vem e vai
EXTD=Dupla de Votuporanga SP
EXTT0=
EXTT1=
EXTT2=
EXTT3=
EXTT4=
EXTT5=
EXTT6=
EXTT7=
EXTT8=
EXTT9=
EXTT10=
EXTT11=
EXTT12=
EXTT13=
EXTT14=
PLAYORDER=
